<svg width="16" height="18" viewBox="0 0 16 18" fill="none" xmlns="http://www.w3.org/2000/svg">
<path d="M8.99998 1.00039C9.00019 0.448107 8.55265 0.0002164 8.00037 7.81201e-08C7.44808 -0.000215875 7.00019 0.447324 6.99997 0.999609L6.99684 9.00306C6.99663 9.55534 7.44417 10.0032 7.99645 10.0034C8.54874 10.0037 8.99663 9.55612 8.99684 9.00384L8.99998 1.00039Z" fill="#27272F"/>
<path d="M0 9.98313C0 7.77402 0.895405 5.77405 2.34308 4.32634L3.7573 5.74055C2.67155 6.82633 2 8.32631 2 9.98313C2 13.2968 4.68629 15.9831 8 15.9831C11.3137 15.9831 14 13.2968 14 9.98313C14 8.32627 13.3284 6.82627 12.2426 5.74048L13.6568 4.32627C15.1046 5.77398 16 7.77399 16 9.98313C16 14.4014 12.4183 17.9831 8 17.9831C3.58172 17.9831 0 14.4014 0 9.98313Z" fill="#27272F"/>
</svg>
