<svg width="21" height="19" viewBox="0 0 21 19" fill="none" xmlns="http://www.w3.org/2000/svg">
<path d="M12.9076 17.7333C12.9437 17.8138 13.0065 17.8824 13.0874 17.9301C13.1684 17.9777 13.2637 18.0021 13.3606 17.9999C13.4575 17.9976 13.5513 17.969 13.6294 17.9177C13.7075 17.8664 13.7663 17.7949 13.7977 17.7129L19.972 1.56476C20.0024 1.48945 20.0082 1.40796 19.9887 1.32981C19.9692 1.25166 19.9253 1.18009 19.862 1.12347C19.7987 1.06685 19.7187 1.02753 19.6314 1.0101C19.544 0.992679 19.453 0.997869 19.3688 1.02507L1.32088 6.54943C1.22921 6.57756 1.14935 6.6301 1.09202 6.70001C1.0347 6.76992 1.00264 6.85384 1.00016 6.94052C0.997676 7.0272 1.02489 7.11249 1.07814 7.18493C1.1314 7.25737 1.20814 7.3135 1.29808 7.34579L8.83071 10.0485C9.06884 10.1338 9.28519 10.2613 9.46673 10.4235C9.64826 10.5856 9.79122 10.779 9.88699 10.9919L12.9076 17.7333Z" stroke="#27272F" stroke-width="2" stroke-linecap="round" stroke-linejoin="round"/>
</svg>
