<svg width="24" height="24" viewBox="0 0 24 24" fill="none" xmlns="http://www.w3.org/2000/svg">
<path d="M15.2128 6.60565C15.2128 5.40066 16.1896 4.42383 17.3946 4.42383C18.5996 4.42383 19.5764 5.40066 19.5764 6.60565C19.5764 7.81063 18.5996 8.78747 17.3946 8.78747C16.1896 8.78747 15.2128 7.81063 15.2128 6.60565Z" fill="#794DFD"/>
<path d="M17.3946 15.155C16.1896 15.155 15.2128 16.1318 15.2128 17.3368C15.2128 18.5418 16.1896 19.5186 17.3946 19.5186C18.5996 19.5186 19.5764 18.5418 19.5764 17.3368C19.5764 16.1318 18.5996 15.155 17.3946 15.155Z" fill="#794DFD"/>
<path d="M4.42383 17.3368C4.42383 16.1318 5.40066 15.155 6.60565 15.155C7.81063 15.155 8.78747 16.1318 8.78747 17.3368C8.78747 18.5418 7.81063 19.5186 6.60565 19.5186C5.40066 19.5186 4.42383 18.5418 4.42383 17.3368Z" fill="#794DFD"/>
<path d="M6.60565 4.42383C5.40066 4.42383 4.42383 5.40066 4.42383 6.60565C4.42383 7.81063 5.40066 8.78747 6.60565 8.78747C7.81063 8.78747 8.78747 7.81063 8.78747 6.60565C8.78747 5.40066 7.81063 4.42383 6.60565 4.42383Z" fill="#794DFD"/>
<path d="M9.81818 12C9.81818 10.795 10.795 9.81818 12 9.81818C13.205 9.81818 14.1818 10.795 14.1818 12C14.1818 13.205 13.205 14.1818 12 14.1818C10.795 14.1818 9.81818 13.205 9.81818 12Z" fill="#794DFD"/>
<path fill-rule="evenodd" clip-rule="evenodd" d="M0 3.27273C0 1.46525 1.46525 0 3.27273 0H20.7273C22.5348 0 24 1.46525 24 3.27273V20.7273C24 22.5348 22.5348 24 20.7273 24H3.27273C1.46525 24 0 22.5348 0 20.7273V3.27273ZM3.27273 2.18182H20.7273C21.3298 2.18182 21.8182 2.67023 21.8182 3.27273V20.7273C21.8182 21.3298 21.3298 21.8182 20.7273 21.8182H3.27273C2.67023 21.8182 2.18182 21.3298 2.18182 20.7273V3.27273C2.18182 2.67023 2.67023 2.18182 3.27273 2.18182Z" fill="#794DFD"/>
</svg>
