<svg width="21" height="19" viewBox="0 0 21 19" fill="none" xmlns="http://www.w3.org/2000/svg">
<path fill-rule="evenodd" clip-rule="evenodd" d="M3.05029 13.0107C4.29498 13.8823 5.72081 14.3022 7.13319 14.3047C7.61864 15.631 8.50087 16.8273 9.74557 17.6988C12.9811 19.9643 17.4405 19.178 19.706 15.9425C21.9715 12.707 21.1852 8.2476 17.9497 5.98209C16.705 5.11054 15.2792 4.69065 13.8668 4.68811C13.3814 3.36177 12.4991 2.16554 11.2544 1.29399C8.01894 -0.97152 3.5595 -0.185201 1.29399 3.05029C-0.97152 6.28577 -0.185201 10.7452 3.05029 13.0107ZM4.22231 11.3369C4.98459 11.8707 5.84198 12.1673 6.70689 12.2421C6.61878 10.6943 7.03104 9.10688 7.98927 7.73838C8.94751 6.36988 10.2982 5.43954 11.7828 4.99295C11.4167 4.20582 10.8447 3.50157 10.0824 2.96781C7.77135 1.34959 4.58603 1.91124 2.96781 4.22231C1.34959 6.53337 1.91124 9.71868 4.22231 11.3369ZM16.7777 7.65591C16.0154 7.12215 15.158 6.82556 14.2931 6.75067C14.3812 8.29847 13.969 9.88593 13.0107 11.2544C12.0525 12.6229 10.7018 13.5533 9.21717 13.9999C9.58335 14.787 10.1553 15.4912 10.9176 16.025C13.2287 17.6432 16.414 17.0816 18.0322 14.7705C19.6504 12.4594 19.0888 9.27413 16.7777 7.65591Z" fill="#27272F"/>
</svg>
