<svg width="20" height="21" viewBox="0 0 20 21" fill="none" xmlns="http://www.w3.org/2000/svg">
<path fill-rule="evenodd" clip-rule="evenodd" d="M15.0322 0.880307C13.9671 -0.293436 12.2403 -0.293436 11.1753 0.880307L9.8896 2.29714C9.83481 2.35753 9.78283 2.41985 9.73367 2.4839C9.68452 2.41986 9.63255 2.35755 9.57776 2.29717L8.29211 0.880342C7.22704 -0.2934 5.50023 -0.2934 4.43516 0.880342C3.3701 2.05408 3.3701 3.9571 4.43516 5.13084L5.23393 6.01111H0V12.0222H1.81818V20.037H18.1818V12.0222H20V6.01111H14.2334L15.0322 5.1308C16.0973 3.95706 16.0973 2.05405 15.0322 0.880307ZM12.4609 5.1308L13.7465 3.71397C14.1016 3.32272 14.1016 2.68839 13.7465 2.29714C13.3915 1.90589 12.8159 1.90589 12.4609 2.29714L11.1753 3.71397C10.8202 4.10522 10.8202 4.73956 11.1753 5.1308C11.5303 5.52205 12.1059 5.52205 12.4609 5.1308ZM8.29211 3.71401L7.00646 2.29717C6.65144 1.90593 6.07583 1.90593 5.72081 2.29717C5.36579 2.68842 5.36579 3.32276 5.72081 3.71401L7.00646 5.13084C7.36148 5.52209 7.93709 5.52209 8.29211 5.13084C8.64713 4.73959 8.64713 4.10525 8.29211 3.71401ZM18.1818 8.01481V10.0185H1.81818V8.01481H18.1818ZM10.8334 12.0222H16.3636V18.0333H10.8334V12.0222ZM9.16674 12.0222V18.0333H3.63636V12.0222H9.16674Z" fill="#27272F"/>
</svg>
