<svg width="22" height="14" viewBox="0 0 22 14" fill="none" xmlns="http://www.w3.org/2000/svg">
<path d="M22 6.98689C22 7.19278 21.9034 7.39024 21.7315 7.53583C21.5596 7.68142 21.3264 7.76321 21.0833 7.76321H0.916666C0.673551 7.76321 0.440394 7.68142 0.268485 7.53583C0.0965772 7.39024 0 7.19278 0 6.98689C0 6.781 0.0965772 6.58354 0.268485 6.43795C0.440394 6.29236 0.673551 6.21057 0.916666 6.21057H21.0833C21.3264 6.21057 21.5596 6.29236 21.7315 6.43795C21.9034 6.58354 22 6.781 22 6.98689ZM0.916666 1.55264H21.0833C21.3264 1.55264 21.5596 1.47085 21.7315 1.32526C21.9034 1.17967 22 0.982214 22 0.776321C22 0.570428 21.9034 0.372968 21.7315 0.227379C21.5596 0.0817909 21.3264 0 21.0833 0H0.916666C0.673551 0 0.440394 0.0817909 0.268485 0.227379C0.0965772 0.372968 0 0.570428 0 0.776321C0 0.982214 0.0965772 1.17967 0.268485 1.32526C0.440394 1.47085 0.673551 1.55264 0.916666 1.55264ZM21.0833 12.4211H0.916666C0.673551 12.4211 0.440394 12.5029 0.268485 12.6485C0.0965772 12.7941 0 12.9916 0 13.1975C0 13.4034 0.0965772 13.6008 0.268485 13.7464C0.440394 13.892 0.673551 13.9738 0.916666 13.9738H21.0833C21.3264 13.9738 21.5596 13.892 21.7315 13.7464C21.9034 13.6008 22 13.4034 22 13.1975C22 12.9916 21.9034 12.7941 21.7315 12.6485C21.5596 12.5029 21.3264 12.4211 21.0833 12.4211Z" fill="white"/>
</svg>
