<svg width="16" height="16" viewBox="0 0 24 24" fill="none" xmlns="http://www.w3.org/2000/svg">
  <path d="M14 8V6C14 5.45 13.55 5 13 5H8V3C8 2.45 7.55 2 7 2C6.45 2 6 2.45 6 3V5H4C3.45 5 3 5.45 3 6C3 6.55 3.45 7 4 7H6V9H4C3.45 9 3 9.45 3 10C3 10.55 3.45 11 4 11H6V13H4C3.45 13 3 13.45 3 14C3 14.55 3.45 15 4 15H6V21C6 21.55 6.45 22 7 22C7.55 22 8 21.55 8 21V15H10C10.55 15 11 14.55 11 14C11 13.45 10.55 13 10 13H8V11H10C10.55 11 11 10.55 11 10C11 9.45 10.55 9 10 9H8V7H13C13.55 7 14 7.45 14 8C14 8.55 14.45 9 15 9C15.55 9 16 8.55 16 8C16 6.89 15.11 6 14 6V4C14 3.45 13.55 3 13 3C12.45 3 12 3.45 12 4V6H10C10.55 6 11 5.55 11 5C11 4.45 10.55 4 10 4H8V3C8 2.45 7.55 2 7 2Z" fill="currentColor"/>
  <path d="M17 2C16.45 2 16 2.45 16 3V4H14C13.45 4 13 4.45 13 5C13 5.55 13.45 6 14 6H16V8H14C13.45 8 13 8.45 13 9C13 9.55 13.45 10 14 10H16V12C16 12.55 16.45 13 17 13C17.55 13 18 12.55 18 12V10H20C20.55 10 21 9.55 21 9C21 8.45 20.55 8 20 8H18V6H20C20.55 6 21 5.55 21 5C21 4.45 20.55 4 20 4H18V3C18 2.45 17.55 2 17 2Z" fill="currentColor"/>
</svg> 