<svg width="22" height="23" viewBox="0 0 22 23" fill="none" xmlns="http://www.w3.org/2000/svg">
<path fill-rule="evenodd" clip-rule="evenodd" d="M16.6681 15.7079C19.5127 11.8885 19.2558 6.36268 15.8973 2.85152C12.2606 -0.950508 6.36427 -0.950508 2.72754 2.85152C-0.909182 6.65355 -0.909182 12.8179 2.72754 16.6199C6.08605 20.1311 11.3716 20.3997 15.025 17.4257C15.0407 17.4444 15.0571 17.4626 15.0742 17.4804L20.0128 22.6436C20.4674 23.1188 21.2045 23.1188 21.6591 22.6436C22.1136 22.1683 22.1136 21.3978 21.6591 20.9225L16.7204 15.7594C16.7034 15.7416 16.6859 15.7244 16.6681 15.7079ZM14.2511 4.57257C16.9786 7.42409 16.9786 12.0473 14.2511 14.8988C11.5235 17.7504 7.10131 17.7504 4.37376 14.8988C1.64622 12.0473 1.64622 7.42409 4.37376 4.57257C7.10131 1.72105 11.5235 1.72105 14.2511 4.57257Z" fill="white"/>
</svg>
