<svg width="24" height="24" viewBox="0 0 24 24" fill="none" xmlns="http://www.w3.org/2000/svg">
<path d="M18.1387 10.794H24C23.8098 8.90301 23.1733 7.08425 22.1427 5.48744C21.0992 5.98674 20.1908 6.72934 19.4941 7.65278C18.7973 8.57622 18.3325 9.65349 18.1387 10.794ZM5.86131 10.794C5.66754 9.65349 5.20271 8.57622 4.50594 7.65278C3.80916 6.72934 2.90081 5.98674 1.85729 5.48744C0.826715 7.08425 0.19015 8.90301 0 10.794H5.86131ZM15.7025 10.794C15.8918 9.28763 16.4339 7.84723 17.2847 6.58986C18.1355 5.33249 19.2711 4.29365 20.599 3.55779C18.628 1.54179 16.0113 0.282503 13.206 0V10.794H15.7025ZM8.29749 10.794H10.794V0C7.9879 0.279483 5.37017 1.53924 3.401 3.55779C4.72893 4.29365 5.86446 5.33249 6.71528 6.58986C7.5661 7.84723 8.1082 9.28763 8.29749 10.794ZM15.7025 13.206H13.206V24C16.0121 23.7205 18.6298 22.4608 20.599 20.4422C19.2711 19.7064 18.1355 18.6675 17.2847 17.4101C16.4339 16.1528 15.8918 14.7124 15.7025 13.206ZM1.85729 18.5126C2.89844 18.01 3.80477 17.2664 4.50111 16.3436C5.19746 15.4207 5.66374 14.3451 5.86131 13.206H0C0.192965 15.1477 0.856281 16.9568 1.85729 18.5126ZM18.1387 13.206C18.3325 14.3465 18.7973 15.4238 19.4941 16.3472C20.1908 17.2707 21.0992 18.0133 22.1427 18.5126C23.1733 16.9157 23.8098 15.097 24 13.206H18.1387ZM8.29749 13.206C8.1082 14.7124 7.5661 16.1528 6.71528 17.4101C5.86446 18.6675 4.72893 19.7064 3.401 20.4422C5.372 22.4582 7.98875 23.7175 10.794 24V13.206H8.29749Z" fill="white"/>
</svg>
