<svg width="21" height="19" viewBox="0 0 21 19" fill="none" xmlns="http://www.w3.org/2000/svg">
<path fill-rule="evenodd" clip-rule="evenodd" d="M2.98557 12.7347C4.20385 13.5877 5.59943 13.9987 6.98184 14.0012C7.45699 15.2994 8.3205 16.4702 9.53879 17.3233C12.7056 19.5407 17.0704 18.7711 19.2879 15.6043C21.5053 12.4374 20.7357 8.0726 17.5689 5.85516C16.3506 5.00211 14.955 4.59113 13.5726 4.58863C13.0974 3.29044 12.2339 2.11959 11.0156 1.26654C7.8488 -0.950907 3.48398 -0.181271 1.26654 2.98557C-0.950907 6.1524 -0.181271 10.5172 2.98557 12.7347ZM4.13272 11.0964C4.87883 11.6188 5.71803 11.9091 6.56458 11.9824C6.47834 10.4674 6.88186 8.91365 7.81976 7.57419C8.75766 6.23472 10.0797 5.32412 11.5328 4.88701C11.1744 4.11658 10.6146 3.42727 9.86848 2.90484C7.60646 1.32095 4.48873 1.87069 2.90484 4.13272C1.32095 6.39474 1.87069 9.51247 4.13272 11.0964ZM16.4217 7.49346C15.6756 6.97103 14.8364 6.68073 13.9898 6.60744C14.0761 8.1224 13.6726 9.67618 12.7347 11.0156C11.7968 12.3551 10.4747 13.2657 9.0216 13.7028C9.38001 14.4732 9.93983 15.1626 10.6859 15.685C12.948 17.2689 16.0657 16.7191 17.6496 14.4571C19.2335 12.1951 18.6837 9.07735 16.4217 7.49346Z" fill="#27272F"/>
</svg>
